<svg xmlns="http://www.w3.org/2000/svg" width="1600" height="900" viewBox="0 0 1600 900" fill="none">
  <defs>
    <linearGradient id="bg" x1="0" y1="0" x2="1" y2="1">
      <stop offset="0%" stop-color="#08111f"/>
      <stop offset="50%" stop-color="#0d1b2f"/>
      <stop offset="100%" stop-color="#17112d"/>
    </linearGradient>
    <radialGradient id="cyanGlow" cx="50%" cy="50%" r="60%">
      <stop offset="0%" stop-color="#37d7ff" stop-opacity="0.40"/>
      <stop offset="100%" stop-color="#37d7ff" stop-opacity="0"/>
    </radialGradient>
    <radialGradient id="amberGlow" cx="50%" cy="50%" r="60%">
      <stop offset="0%" stop-color="#ff9c45" stop-opacity="0.38"/>
      <stop offset="100%" stop-color="#ff9c45" stop-opacity="0"/>
    </radialGradient>
    <linearGradient id="line" x1="0" y1="0" x2="1" y2="0">
      <stop offset="0%" stop-color="#37d7ff" stop-opacity="0.15"/>
      <stop offset="50%" stop-color="#8a6bff" stop-opacity="0.9"/>
      <stop offset="100%" stop-color="#ff9c45" stop-opacity="0.15"/>
    </linearGradient>
    <filter id="blur" x="-50%" y="-50%" width="200%" height="200%"><feGaussianBlur stdDeviation="30"/></filter>
  </defs>
  <rect width="1600" height="900" fill="url(#bg)"/>
  <g opacity="0.35">
    <path d="M0 120H1600" stroke="#1d3557"/>
    <path d="M0 220H1600" stroke="#1d3557"/>
    <path d="M0 320H1600" stroke="#1d3557"/>
    <path d="M0 420H1600" stroke="#1d3557"/>
    <path d="M0 520H1600" stroke="#1d3557"/>
    <path d="M0 620H1600" stroke="#1d3557"/>
    <path d="M0 720H1600" stroke="#1d3557"/>
    <path d="M120 0V900" stroke="#1d3557"/>
    <path d="M320 0V900" stroke="#1d3557"/>
    <path d="M520 0V900" stroke="#1d3557"/>
    <path d="M720 0V900" stroke="#1d3557"/>
    <path d="M920 0V900" stroke="#1d3557"/>
    <path d="M1120 0V900" stroke="#1d3557"/>
    <path d="M1320 0V900" stroke="#1d3557"/>
  </g>
  <circle cx="360" cy="260" r="220" fill="url(#cyanGlow)" filter="url(#blur)"/>
  <circle cx="1220" cy="210" r="260" fill="url(#amberGlow)" filter="url(#blur)"/>
  <g transform="translate(160 140)">
    <rect x="0" y="0" width="1280" height="620" rx="36" fill="rgba(10,16,28,0.22)" stroke="rgba(255,255,255,0.09)"/>
    <g stroke="url(#line)" stroke-width="3">
      <path d="M170 210 C320 120, 470 120, 620 210"/>
      <path d="M620 210 C760 300, 920 300, 1080 180"/>
      <path d="M170 410 C330 320, 450 330, 620 430"/>
      <path d="M620 430 C790 520, 950 510, 1110 390"/>
      <path d="M320 120 C380 250, 430 320, 520 380"/>
      <path d="M850 140 C810 240, 770 330, 690 390"/>
      <path d="M960 230 C860 250, 770 260, 620 210"/>
    </g>
    <g fill="#0c1728" stroke-width="2.5">
      <g stroke="#37d7ff"><circle cx="170" cy="210" r="18"/><circle cx="320" cy="120" r="14"/><circle cx="520" cy="380" r="16"/><circle cx="620" cy="210" r="22"/><circle cx="620" cy="430" r="18"/></g>
      <g stroke="#8a6bff"><circle cx="850" cy="140" r="16"/><circle cx="960" cy="230" r="18"/><circle cx="1080" cy="180" r="14"/><circle cx="1110" cy="390" r="18"/></g>
      <g stroke="#ff9c45"><circle cx="470" cy="120" r="12"/><circle cx="770" cy="260" r="15"/><circle cx="920" cy="300" r="13"/><circle cx="950" cy="510" r="16"/></g>
    </g>
    <g>
      <rect x="86" y="496" width="244" height="78" rx="20" fill="#0d1b2f" stroke="#2f455f"/>
      <text x="112" y="526" fill="#98afc7" font-size="15" font-family="Inter,Arial">EDGE MEMORY STACK</text>
      <text x="112" y="559" fill="#f5fbff" font-size="28" font-weight="700" font-family="Inter,Arial">OpenClaw + Vectorize</text>
    </g>
  </g>
</svg>